<svg width="16" height="16" viewBox="0 0 16 16" fill="none" xmlns="http://www.w3.org/2000/svg">
<path d="M8 16C12.4183 16 16 12.4183 16 8C16 3.58171 12.4183 0 8 0C3.58171 0 0 3.58171 0 8C0 12.4183 3.58171 16 8 16Z" fill="#0098EA"/>
<path d="M10.7305 4.46484H5.26714C4.26263 4.46484 3.62597 5.54842 4.13132 6.42439L7.50309 12.2686C7.72312 12.6502 8.27452 12.6502 8.49454 12.2686L11.867 6.42439C12.3717 5.54982 11.735 4.46484 10.7312 4.46484H10.7305ZM7.50034 10.516L6.76603 9.09484L4.9942 5.9259C4.87732 5.72307 5.02169 5.46316 5.26646 5.46316H7.49966V10.5167L7.50034 10.516ZM11.0021 5.92522L9.23092 9.09553L8.4966 10.516V5.46247H10.7298C10.9746 5.46247 11.1189 5.72239 11.0021 5.92522Z" fill="white"/>
</svg>
